#Comment line ignore any data following # character 
#Hierarchical Translation and Rotation (.htr) file 
[Header]	
#Header keywords are followed by a single value 
FileType HTR		#Single word string
DataType HTRS		#Translation followed by rotation and scale data
FileVersion 1		#integer
NumSegments 64		#integer
NumFrames 3		#integer
DataFrameRate 30		#integer, data frame rate in this file
EulerRotationOrder ZYX
CalibrationUnits mm
RotationUnits Degrees
GlobalAxisofGravity Y
BoneLengthAxis Y
ScaleFactor 1.00
[SegmentNames&Hierarchy]
#CHILD	PARENT
Pinger_Root GLOBAL
Pelvis Pinger_Root
L_Hip Pelvis
R_Hip Pelvis
Rear_Leg01 Pelvis
Spine1 Pelvis
L_Leg01 L_Hip
L_Leg02 L_Leg01
L_Leg03 L_Leg02
L_Foot L_Leg03
L_Toe1_01 L_Foot
L_Toe2_01 L_Foot
L_Toe3_01 L_Foot
planeAlignerLeft L_Foot
L_Toe1_02 L_Toe1_01
L_Toe1_03 L_Toe1_02
L_Toe2_02 L_Toe2_01
L_Toe2_03 L_Toe2_02
L_Toe3_02 L_Toe3_01
L_Toe3_03 L_Toe3_02
planeLockWeightLeft planeAlignerLeft
R_Leg01 R_Hip
R_Leg02 R_Leg01
R_Leg03 R_Leg02
R_Foot R_Leg03
planeAlignerRight R_Foot
R_Toe1_01 R_Foot
R_Toe2_01 R_Foot
R_Toe3_01 R_Foot
planeLockWeightRight planeAlignerRight
R_Toe1_02 R_Toe1_01
R_Toe1_03 R_Toe1_02
R_Toe2_02 R_Toe2_01
R_Toe2_03 R_Toe2_02
R_Toe3_02 R_Toe3_01
R_Toe3_03 R_Toe3_02
Rear_Leg02 Rear_Leg01
Rear_Leg03 Rear_Leg02
Rear_Leg04 Rear_Leg03
Rear_Foot Rear_Leg04
planeAlignerCenter Rear_Foot
Rear_Toe1_01 Rear_Foot
Rear_Toe2_01 Rear_Foot
Rear_Toe3_01 Rear_Foot
planeLockWeightCenter planeAlignerCenter
Rear_Toe1_02 Rear_Toe1_01
Rear_Toe1_03 Rear_Toe1_02
Rear_Toe2_02 Rear_Toe2_01
Rear_Toe2_03 Rear_Toe2_02
Rear_Toe3_02 Rear_Toe3_01
Rear_Toe3_03 Rear_Toe3_02
Back_Bone Spine1
Head Spine1
Motor_Bone Back_Bone
Ping_Mechanism Back_Bone
BN_LookIK Head
bottomMouth Head
L_Mouth01 Head
L_mouthFront Head
mouthGun Head
R_Mouth01 Head
R_mouthFront Head
TopMouth Head
weapon_bone Head
[BasePosition]
#SegmentName Tx, Ty, Tz, Rx, Ry, Rz, BoneLength
Pinger_Root 0.000000 0.000000 0.000000 -90.000000 0.000000 0.000000 10.000000 
Pelvis 0.000000 0.000000 0.000000 0.000000 0.000000 0.000000 10.000000 
L_Hip 0.000000 0.000000 0.000000 0.000000 0.000000 0.000000 10.000000 
R_Hip 0.000000 0.000000 0.000000 0.000000 0.000000 0.000000 10.000000 
Rear_Leg01 0.000000 0.000000 0.000000 0.000000 0.000000 0.000000 10.000000 
Spine1 0.000000 0.000000 0.000000 0.000000 0.000000 0.000000 10.000000 
L_Leg01 0.000000 0.000000 0.000000 0.000000 0.000000 0.000000 10.000000 
L_Leg02 0.000000 0.000000 0.000000 0.000000 0.000000 0.000000 10.000000 
L_Leg03 0.000000 0.000000 0.000000 0.000000 0.000000 0.000000 10.000000 
L_Foot 0.000000 0.000000 0.000000 0.000000 0.000000 0.000000 10.000000 
L_Toe1_01 0.000000 0.000000 0.000000 0.000000 0.000000 0.000000 10.000000 
L_Toe2_01 0.000000 0.000000 0.000000 0.000000 0.000000 0.000000 10.000000 
L_Toe3_01 0.000000 0.000000 0.000000 0.000000 0.000000 0.000000 10.000000 
planeAlignerLeft 0.000000 0.000000 0.000000 0.000000 0.000000 0.000000 10.000000 
L_Toe1_02 0.000000 0.000000 0.000000 0.000000 0.000000 0.000000 10.000000 
L_Toe1_03 0.000000 0.000000 0.000000 0.000000 0.000000 0.000000 10.000000 
L_Toe2_02 0.000000 0.000000 0.000000 0.000000 0.000000 0.000000 10.000000 
L_Toe2_03 0.000000 0.000000 0.000000 0.000000 0.000000 0.000000 10.000000 
L_Toe3_02 0.000000 0.000000 0.000000 0.000000 0.000000 0.000000 10.000000 
L_Toe3_03 0.000000 0.000000 0.000000 0.000000 0.000000 0.000000 10.000000 
planeLockWeightLeft 0.000000 0.000000 0.000000 0.000000 0.000000 0.000000 10.000000 
R_Leg01 0.000000 0.000000 0.000000 0.000000 0.000000 0.000000 10.000000 
R_Leg02 0.000000 0.000000 0.000000 0.000000 0.000000 0.000000 10.000000 
R_Leg03 0.000000 0.000000 0.000000 0.000000 0.000000 0.000000 10.000000 
R_Foot 0.000000 0.000000 0.000000 0.000000 0.000000 0.000000 10.000000 
planeAlignerRight 0.000000 0.000000 0.000000 0.000000 0.000000 0.000000 10.000000 
R_Toe1_01 0.000000 0.000000 0.000000 0.000000 0.000000 0.000000 10.000000 
R_Toe2_01 0.000000 0.000000 0.000000 0.000000 0.000000 0.000000 10.000000 
R_Toe3_01 0.000000 0.000000 0.000000 0.000000 0.000000 0.000000 10.000000 
planeLockWeightRight 0.000000 0.000000 0.000000 0.000000 0.000000 0.000000 10.000000 
R_Toe1_02 0.000000 0.000000 0.000000 0.000000 0.000000 0.000000 10.000000 
R_Toe1_03 0.000000 0.000000 0.000000 0.000000 0.000000 0.000000 10.000000 
R_Toe2_02 0.000000 0.000000 0.000000 0.000000 0.000000 0.000000 10.000000 
R_Toe2_03 0.000000 0.000000 0.000000 0.000000 0.000000 0.000000 10.000000 
R_Toe3_02 0.000000 0.000000 0.000000 0.000000 0.000000 0.000000 10.000000 
R_Toe3_03 0.000000 0.000000 0.000000 0.000000 0.000000 0.000000 10.000000 
Rear_Leg02 0.000000 0.000000 0.000000 0.000000 0.000000 0.000000 10.000000 
Rear_Leg03 0.000000 0.000000 0.000000 0.000000 0.000000 0.000000 10.000000 
Rear_Leg04 0.000000 0.000000 0.000000 0.000000 0.000000 0.000000 10.000000 
Rear_Foot 0.000000 0.000000 0.000000 0.000000 0.000000 0.000000 10.000000 
planeAlignerCenter 0.000000 0.000000 0.000000 0.000000 0.000000 0.000000 10.000000 
Rear_Toe1_01 0.000000 0.000000 0.000000 0.000000 0.000000 0.000000 10.000000 
Rear_Toe2_01 0.000000 0.000000 0.000000 0.000000 0.000000 0.000000 10.000000 
Rear_Toe3_01 0.000000 0.000000 0.000000 0.000000 0.000000 0.000000 10.000000 
planeLockWeightCenter 0.000000 0.000000 0.000000 0.000000 0.000000 0.000000 10.000000 
Rear_Toe1_02 0.000000 0.000000 0.000000 0.000000 0.000000 0.000000 10.000000 
Rear_Toe1_03 0.000000 0.000000 0.000000 0.000000 0.000000 0.000000 10.000000 
Rear_Toe2_02 0.000000 0.000000 0.000000 0.000000 0.000000 0.000000 10.000000 
Rear_Toe2_03 0.000000 0.000000 0.000000 0.000000 0.000000 0.000000 10.000000 
Rear_Toe3_02 0.000000 0.000000 0.000000 0.000000 0.000000 0.000000 10.000000 
Rear_Toe3_03 0.000000 0.000000 0.000000 0.000000 0.000000 0.000000 10.000000 
Back_Bone 0.000000 0.000000 0.000000 0.000000 0.000000 0.000000 10.000000 
Head 0.000000 0.000000 0.000000 0.000000 0.000000 0.000000 10.000000 
Motor_Bone 0.000000 0.000000 0.000000 0.000000 0.000000 0.000000 10.000000 
Ping_Mechanism 0.000000 0.000000 0.000000 0.000000 0.000000 0.000000 10.000000 
BN_LookIK 0.000000 0.000000 0.000000 0.000000 0.000000 0.000000 10.000000 
bottomMouth 0.000000 0.000000 0.000000 0.000000 0.000000 0.000000 10.000000 
L_Mouth01 0.000000 0.000000 0.000000 0.000000 0.000000 0.000000 10.000000 
L_mouthFront 0.000000 0.000000 0.000000 0.000000 0.000000 0.000000 10.000000 
mouthGun 0.000000 0.000000 0.000000 0.000000 0.000000 0.000000 10.000000 
R_Mouth01 0.000000 0.000000 0.000000 0.000000 0.000000 0.000000 10.000000 
R_mouthFront 0.000000 0.000000 0.000000 0.000000 0.000000 0.000000 10.000000 
TopMouth 0.000000 0.000000 0.000000 0.000000 0.000000 0.000000 10.000000 
weapon_bone 0.000000 0.000000 0.000000 0.000000 0.000000 0.000000 10.000000 
#Beginning of Data. Separated by tabs
#Fr	Tx	Ty	Tz	Rx	Ry	Rz	SF
[Pinger_Root]
29 0.000000 0.000000 0.000000 -0.000075 -0.000000 -0.000020 0.000000
30 0.000000 0.000000 0.000000 -0.000075 -0.000000 -0.000020 0.000000
31 0.000000 0.000000 0.000000 -0.000075 -0.000000 -0.000020 0.000000
[Pelvis]
29 -302.635803 1276.277100 4886.657227 -170.019882 -82.472878 162.382141 5059.633789
30 -283.813354 1223.598877 4886.446289 -144.002151 -78.234764 134.235565 5045.305176
31 -254.480209 1180.678223 4891.925293 -132.631012 -72.320190 120.437981 5038.818848
[L_Hip]
29 5.766392 125.831482 872.656799 -178.253311 -81.787758 87.381340 881.701050
30 5.766392 125.831482 872.656799 -178.253342 -81.787758 87.381340 881.701050
31 5.766392 125.831482 872.656799 -178.253311 -81.787758 87.381340 881.701050
[R_Hip]
29 5.765438 125.836372 -872.654907 -1.742611 81.786926 87.379059 881.699829
30 5.765438 125.836372 -872.654907 -1.742398 81.786850 87.378929 881.699829
31 5.765438 125.836372 -872.654907 -1.742174 81.786850 87.378853 881.699829
[Rear_Leg01]
29 -192.298416 -925.602966 -0.001907 139.616730 14.001842 -147.841461 945.367432
30 -192.298416 -925.602966 -0.001907 138.925354 18.193733 -149.457932 945.367432
31 -192.298416 -925.602966 -0.001907 137.879807 21.397196 -152.769577 945.367432
[Spine1]
29 290.604584 5.007505 0.000477 11.613885 4.045290 20.810816 290.647736
30 290.604584 5.007505 0.000477 13.634857 5.360743 15.091619 290.647736
31 290.604584 5.007505 0.000477 15.732264 7.013569 8.640395 290.647736
[L_Leg01]
29 761.932007 -0.002384 -0.069261 53.149014 -33.681366 -54.368088 761.932068
30 761.932007 -0.002384 -0.069261 44.321690 -38.410206 -44.070492 761.932068
31 761.932007 -0.002384 -0.069261 32.817860 -41.944557 -30.471830 761.932068
[L_Leg02]
29 1441.140503 -0.000954 -0.000715 -1.052176 0.326294 -107.639999 1441.140503
30 1441.140503 -0.000954 -0.000715 -0.649434 0.218024 -112.469513 1441.140503
31 1441.140503 -0.000954 -0.000715 -0.112894 0.077735 -117.785095 1441.140503
[L_Leg03]
29 1686.963989 -0.000715 -0.000954 0.019184 -0.006119 105.383934 1686.963989
30 1686.963989 -0.000715 -0.000954 0.012214 -0.005276 106.251930 1686.963989
31 1686.963989 -0.000715 -0.000954 0.012202 -0.005304 106.511169 1686.963989
[L_Foot]
29 3041.570068 -30.715107 11.297464 -6.027384 10.437306 47.874931 3041.746094
30 3041.570068 -30.715107 11.297464 -6.194343 9.343053 48.513588 3041.746094
31 3041.570068 -30.715107 11.297464 -6.622138 8.295411 49.393951 3041.746094
[L_Toe1_01]
29 -188.216690 -224.732346 -21.137953 90.434814 -4.702673 -173.105240 293.899567
30 -188.216690 -224.732346 -21.137953 90.529442 -4.939430 -173.437271 293.899567
31 -188.216690 -224.732346 -21.137953 90.614372 -5.149677 -173.630829 293.899567
[L_Toe2_01]
29 200.746536 -219.926590 148.838394 -78.782654 -15.925819 -38.569637 332.896027
30 200.746536 -219.926590 148.838394 -78.712334 -15.944250 -38.753704 332.896027
31 200.746536 -219.926590 148.838394 -78.641930 -15.962468 -38.937820 332.896027
[L_Toe3_01]
29 188.832520 -219.859131 -191.078659 -102.774544 14.114543 -38.423119 347.140900
30 188.832520 -219.859131 -191.078659 -102.693863 13.696248 -38.480289 347.140900
31 188.832520 -219.859131 -191.078659 -102.612915 13.278046 -38.537971 347.140900
[planeAlignerLeft]
29 0.812531 -811.448792 -0.314951 0.000000 -90.000000 -90.001900 811.449280
30 0.812531 -811.448792 -0.314951 0.000000 -90.000000 -90.001900 811.449280
31 0.812531 -811.448792 -0.314951 0.000000 -90.000000 -90.001900 811.449280
[L_Toe1_02]
29 413.761139 0.000477 0.000000 0.001436 -19.620550 0.001436 413.761139
30 413.761139 0.000477 0.000000 0.001439 -19.334330 0.001439 413.761139
31 413.761139 0.000477 0.000000 0.001441 -19.048113 0.001441 413.761139
[L_Toe1_03]
29 464.317322 0.000358 -0.000089 -179.993179 88.059921 -179.990555 464.317322
30 464.317322 0.000358 -0.000089 -179.980286 86.932930 -179.976776 464.317322
31 464.317322 0.000358 -0.000089 -179.985214 86.016258 -179.981720 464.317322
[L_Toe2_02]
29 342.235809 -0.000477 0.000238 0.001181 -77.544067 0.001181 342.235809
30 342.235809 -0.000477 0.000238 0.001181 -77.207069 0.001181 342.235809
31 342.235809 -0.000477 0.000238 0.001181 -76.870064 0.001181 342.235809
[L_Toe2_03]
29 420.210846 -0.000715 0.000000 -179.996231 78.057121 -179.992722 420.210846
30 420.210846 -0.000715 0.000000 -179.995499 79.462326 -179.991989 420.210846
31 420.210846 -0.000715 0.000000 -179.994537 80.867531 -179.991028 420.210846
[L_Toe3_02]
29 329.270111 0.000954 0.000000 0.001176 -82.099922 0.001176 329.270111
30 329.270111 0.000954 0.000000 0.001177 -81.933136 0.001177 329.270111
31 329.270111 0.000954 0.000000 0.001177 -81.766228 0.001177 329.270111
[L_Toe3_03]
29 439.137451 -0.001907 0.000954 -179.998260 71.214493 -179.994705 439.137451
30 439.137451 -0.001907 0.000954 -179.998062 72.160500 -179.994522 439.137451
31 439.137451 -0.001907 0.000954 -179.997864 73.106377 -179.994324 439.137451
[planeLockWeightLeft]
29 -0.000954 0.000238 -0.000305 -0.011826 -0.004376 0.005620 0.001029
30 -0.000954 0.000238 -0.000305 -0.011826 -0.004376 0.005620 0.001029
31 -0.000954 0.000238 -0.000305 -0.011826 -0.004376 0.005620 0.001029
[R_Leg01]
29 761.455627 -0.001907 -0.000358 105.991737 -39.656136 73.826645 761.455688
30 761.455627 -0.001907 -0.000358 102.092331 -35.227863 78.557503 761.455688
31 761.455627 -0.001907 -0.000358 97.929222 -31.996206 82.478600 761.455688
[R_Leg02]
29 1441.140625 0.000000 -0.000238 -0.502291 -0.044345 -130.921967 1441.140625
30 1441.140625 0.000000 -0.000238 -0.608616 -0.087802 -122.982323 1441.140625
31 1441.140625 0.000000 -0.000238 -0.664076 -0.083799 -111.770325 1441.140625
[R_Leg03]
29 1686.963989 0.000954 0.001431 0.040672 -0.018931 121.970047 1686.963989
30 1686.963989 0.000954 0.001431 0.068082 -0.034909 128.531601 1686.963989
31 1686.963989 0.000954 0.001431 0.080074 -0.041923 131.939072 1686.963989
[R_Foot]
29 3041.560059 -30.531288 -11.204481 -2.520367 -23.259785 79.796005 3041.734131
30 3041.560059 -30.531288 -11.204481 0.719163 -22.944920 69.856102 3041.734131
31 3041.560059 -30.531288 -11.204481 4.128333 -22.742083 57.982719 3041.734131
[planeAlignerRight]
29 -0.635147 -812.270569 -0.364304 0.000000 -89.960434 -90.005180 812.270874
30 -0.635147 -812.270569 -0.364304 0.000000 -89.960434 -90.005180 812.270874
31 -0.635147 -812.270569 -0.364304 0.000000 -89.960434 -90.005180 812.270874
[R_Toe1_01]
29 -188.383347 -224.864899 21.052242 78.530289 8.574956 -155.587494 294.101532
30 -188.383347 -224.864899 21.052242 80.716042 7.861320 -152.506409 294.101532
31 -188.383347 -224.864899 21.052242 83.040237 6.589111 -151.301117 294.101532
[R_Toe2_01]
29 200.637817 -220.002121 -148.787384 -114.008759 26.392969 -83.635849 332.857574
30 200.637817 -220.002121 -148.787384 -113.219376 22.584373 -85.346794 332.857574
31 200.637817 -220.002121 -148.787384 -111.968040 19.789188 -84.487129 332.857574
[R_Toe3_01]
29 188.606735 -220.092957 191.126343 -74.637070 14.662574 -81.918480 347.192566
30 188.606735 -220.092957 191.126343 -73.369904 11.343568 -84.291107 347.192566
31 188.606735 -220.092957 191.126343 -72.079521 7.377078 -83.556648 347.192566
[planeLockWeightRight]
29 -0.000477 0.000000 0.000000 -0.011823 -0.004379 -0.000027 0.000477
30 -0.000477 0.000000 0.000000 -0.011823 -0.004379 -0.000027 0.000477
31 -0.000477 0.000000 0.000000 -0.011823 -0.004379 -0.000027 0.000477
[R_Toe1_02]
29 413.762085 0.000477 -0.000119 0.001440 -19.168062 0.001440 413.762085
30 413.762085 0.000477 -0.000119 0.001443 -18.837101 0.001443 413.762085
31 413.762085 0.000477 -0.000119 0.001435 -19.715580 0.001435 413.762085
[R_Toe1_03]
29 464.317810 0.000000 0.001088 -179.982346 86.606102 -179.978851 464.317810
30 464.317810 0.000000 0.001088 -179.987061 85.516861 -179.983566 464.317810
31 464.317810 0.000000 0.001088 -179.965576 88.179298 -179.962067 464.317810
[R_Toe2_02]
29 342.234741 -0.000954 0.000238 -0.002336 -78.059235 -0.002336 342.234741
30 342.234741 -0.000954 0.000238 -0.002334 -78.972626 -0.002334 342.234741
31 342.234741 -0.000954 0.000238 -0.002333 -79.397552 -0.002333 342.234741
[R_Toe2_03]
29 420.210846 0.000715 -0.000268 -179.993820 75.045670 -179.997345 420.210846
30 420.210846 0.000715 -0.000268 -179.994888 70.202751 -179.998444 420.210846
31 420.210846 0.000715 -0.000268 -179.995346 66.816368 -179.998932 420.210846
[R_Toe3_02]
29 329.270355 -0.000477 -0.000954 0.001177 -81.775864 0.001177 329.270355
30 329.270355 -0.000477 -0.000954 0.001176 -82.701500 0.001176 329.270355
31 329.270355 -0.000477 -0.000954 0.001176 -83.197617 0.001176 329.270355
[R_Toe3_03]
29 439.137939 0.000238 0.001431 -179.997910 72.878746 -179.994385 439.137939
30 439.137939 0.000238 0.001431 -179.998779 67.951294 -179.995209 439.137939
31 439.137939 0.000238 0.001431 -179.999207 64.356682 -179.995621 439.137939
[Rear_Leg02]
29 1162.777710 -0.029802 0.005960 0.098852 4.353001 -80.767387 1162.777710
30 1162.777710 -0.029802 0.005960 0.506974 5.960553 -66.782349 1162.777710
31 1162.777710 -0.029802 0.005960 1.295959 7.421860 -52.742027 1162.777710
[Rear_Leg03]
29 607.192505 -0.013351 -0.073195 0.006552 -0.001856 59.836372 607.192505
30 607.192505 -0.013351 -0.073195 0.006577 -0.001767 58.284592 607.192505
31 607.192505 -0.013351 -0.073195 0.006612 -0.001630 55.902981 607.192505
[Rear_Leg04]
29 995.874512 -0.020504 -0.011921 -0.039293 -0.018098 49.810558 995.874573
30 995.874512 -0.020504 -0.011921 -0.036877 -0.014493 47.088001 995.874573
31 995.874512 -0.020504 -0.011921 -0.036337 -0.015799 43.002655 995.874573
[Rear_Foot]
29 3096.176270 -0.067472 -0.041425 136.037766 84.667297 -33.526733 3096.176270
30 3096.176270 -0.067472 -0.041425 115.620941 84.162086 -56.719810 3096.176270
31 3096.176270 -0.067472 -0.041425 102.818558 83.001404 -71.342804 3096.176270
[planeAlignerCenter]
29 0.350077 0.966311 -838.790894 0.000009 0.000003 -179.999985 838.791565
30 0.350077 0.966311 -838.790894 0.000009 0.000003 -179.999985 838.791565
31 0.350077 0.966311 -838.790894 0.000009 0.000003 -179.999985 838.791565
[Rear_Toe1_01]
29 0.653352 83.966492 -371.173737 4.073000 2.158154 104.108177 380.553192
30 0.653352 83.966492 -371.173737 3.941875 3.131960 103.596695 380.553192
31 0.653352 83.966492 -371.173737 3.770002 4.645128 102.929375 380.553192
[Rear_Toe2_01]
29 178.200760 -294.826019 -362.060547 -3.885605 34.555397 -87.838615 499.765686
30 178.200760 -294.826019 -362.060547 -4.128300 35.387218 -87.669678 499.765686
31 178.200760 -294.826019 -362.060547 -4.370507 36.219604 -87.503288 499.765686
[Rear_Toe3_01]
29 -153.359680 -308.780914 -362.060852 -1.478218 30.603189 -117.106888 499.952881
30 -153.359680 -308.780914 -362.060852 -1.714411 32.350693 -117.715782 499.952881
31 -153.359680 -308.780914 -362.060852 -2.093053 34.380383 -118.629280 499.952881
[planeLockWeightCenter]
29 -0.000062 0.000238 0.000000 -0.011814 -0.004373 -0.000015 0.000246
30 -0.000062 0.000238 0.000000 -0.011814 -0.004373 -0.000015 0.000246
31 -0.000062 0.000238 0.000000 -0.011814 -0.004373 -0.000015 0.000246
[Rear_Toe1_02]
29 379.707825 0.194073 0.000477 -0.010864 -28.083265 -0.010864 379.707855
30 379.707825 0.194073 0.000477 -0.010824 -28.787338 -0.010824 379.707855
31 379.707825 0.194073 0.000477 -0.009423 -29.777870 -0.009423 379.707855
[Rear_Toe1_03]
29 500.129700 0.165701 0.000119 179.995346 60.768658 179.995346 500.129761
30 500.129700 0.165701 0.000119 179.994751 64.210663 179.994751 500.129761
31 500.129700 0.165701 0.000119 -179.995041 69.208374 -179.998596 500.129761
[Rear_Toe2_02]
29 340.494507 0.000238 -0.000954 0.001190 -70.701218 0.001190 340.494507
30 340.494507 0.000238 -0.000954 0.001186 -73.570877 0.001186 340.494507
31 340.494507 0.000238 -0.000954 0.001182 -77.067795 0.001182 340.494507
[Rear_Toe2_03]
29 433.103577 0.000000 0.000238 0.007153 71.112091 0.007153 433.103546
30 433.103577 0.000000 0.000238 0.009455 75.739471 0.009455 433.103546
31 433.103577 0.000000 0.000238 0.016803 81.989769 0.016803 433.103546
[Rear_Toe3_02]
29 340.494141 -0.000358 -0.000477 -0.002454 -52.432938 -0.002454 340.494171
30 340.494141 -0.000358 -0.000477 -0.002423 -56.976898 -0.002423 340.494171
31 340.494141 -0.000358 -0.000477 -0.002392 -62.486622 -0.002392 340.494171
[Rear_Toe3_03]
29 433.103577 0.001431 -0.000238 0.000308 47.061054 -0.003449 433.103546
30 433.103577 0.001431 -0.000238 0.000064 52.387020 -0.003630 433.103546
31 433.103577 0.001431 -0.000238 -0.000362 59.346279 -0.003987 433.103546
[Back_Bone]
29 1312.175781 -701.934692 0.000954 -0.094080 -3.656272 -82.832481 1488.125488
30 1312.175781 -701.934692 0.000954 0.341340 -3.648141 -84.663963 1488.125488
31 1312.175781 -701.934692 0.000954 0.763398 -3.650662 -85.498581 1488.125488
[Head]
29 1406.159424 809.709290 0.001431 2.949215 -3.481633 10.583938 1622.625488
30 1406.159424 809.709290 0.001431 2.948568 -4.098687 11.291134 1622.625488
31 1406.159424 809.709290 0.001431 2.932804 -4.784558 12.651023 1622.625488
[Motor_Bone]
29 1158.364380 -417.834747 0.000477 -0.124113 0.259388 -105.729691 1231.419434
30 1158.364380 -417.834747 0.000477 -10.661876 2.302250 -103.682213 1231.419434
31 1158.364380 -417.834747 0.000477 -6.760231 1.129092 -104.854950 1231.419434
[Ping_Mechanism]
29 1225.379028 -436.721191 -35.935299 0.000103 -0.000053 82.120995 1301.372559
30 1254.367920 -447.303436 -41.771477 0.000103 -0.000053 82.120995 1332.390381
31 1287.841675 -454.613617 -46.302139 0.000103 -0.000053 82.120995 1366.511475
[BN_LookIK]
29 193.241119 1380.371704 -0.002861 0.000000 89.965736 -31.038179 1393.832153
30 193.241119 1380.371704 -0.002861 0.000000 89.965736 -31.038179 1393.832153
31 193.241119 1380.371704 -0.002861 0.000000 89.965736 -31.038179 1393.832153
[bottomMouth]
29 -435.092926 615.759399 -0.000954 -0.000022 0.000016 73.527184 753.966492
30 -435.092926 615.759399 -0.000954 -0.000022 0.000016 73.527184 753.966492
31 -435.092926 615.759399 -0.000954 -0.000022 0.000016 73.527184 753.966492
[L_Mouth01]
29 554.440979 7.658243 838.222046 150.204178 23.759130 109.605339 1005.027161
30 554.440979 7.658243 838.222046 150.204178 23.759130 109.605339 1005.027161
31 554.440979 7.658243 838.222046 150.204178 23.759130 109.605339 1005.027161
[L_mouthFront]
29 551.629089 934.514771 339.150421 0.000081 2.804060 79.119301 1136.941284
30 551.629089 934.514771 339.150421 0.000081 2.804060 79.119301 1136.941284
31 551.629089 934.514771 339.150421 0.000081 2.804060 79.119301 1136.941284
[mouthGun]
29 55.332661 1627.420898 0.000000 0.000023 0.000009 -11.038128 1628.361328
30 55.332661 1627.420898 0.000000 0.000023 0.000009 -11.038128 1628.361328
31 55.332661 1627.420898 0.000000 0.000023 0.000009 -11.038128 1628.361328
[R_Mouth01]
29 554.442383 7.659197 -838.223938 29.795891 -23.759109 109.605331 1005.029541
30 554.442383 7.659197 -838.223938 29.795891 -23.759109 109.605331 1005.029541
31 554.442383 7.659197 -838.223938 29.795891 -23.759109 109.605331 1005.029541
[R_mouthFront]
29 551.629089 934.514282 -339.151367 0.000029 -2.803930 79.119133 1136.941162
30 551.629089 934.514282 -339.151367 0.000029 -2.803930 79.119133 1136.941162
31 551.629089 934.514282 -339.151367 0.000029 -2.803930 79.119133 1136.941162
[TopMouth]
29 461.269867 -56.106091 -0.008583 -0.000059 -0.000268 92.025169 464.669525
30 461.269867 -56.106091 -0.008583 -0.000059 -0.000268 92.025169 464.669525
31 461.269867 -56.106091 -0.008583 -0.000059 -0.000268 92.025169 464.669525
[weapon_bone]
29 -987.239868 1448.372803 0.001431 0.000000 89.965736 -31.038221 1752.833740
30 -987.239868 1448.372803 0.001431 0.000000 89.965736 -31.038221 1752.833740
31 -987.239868 1448.372803 0.001431 0.000000 89.965736 -31.038221 1752.833740
